<?xml version="1.0" encoding="UTF-8" standalone="no"?>
<!-- Created with Inkscape (http://www.inkscape.org/) -->

<svg
   xmlns:dc="http://purl.org/dc/elements/1.1/"
   xmlns:cc="http://creativecommons.org/ns#"
   xmlns:rdf="http://www.w3.org/1999/02/22-rdf-syntax-ns#"
   xmlns:svg="http://www.w3.org/2000/svg"
   xmlns="http://www.w3.org/2000/svg"
   xmlns:xlink="http://www.w3.org/1999/xlink"
   xmlns:sodipodi="http://sodipodi.sourceforge.net/DTD/sodipodi-0.dtd"
   xmlns:inkscape="http://www.inkscape.org/namespaces/inkscape"
   id="svg2"
   sodipodi:docname="moldycheese.svg"
   viewBox="0 0 260.11065 184.38707"
   version="1.1"
   inkscape:version="0.91 r13725"
   width="260.11066"
   height="184.38707">
  <defs
     id="defs4">
    <linearGradient
       id="linearGradient3010">
      <stop
         id="stop3014"
         style="stop-color:#aa8800;stop-opacity:0"
         offset="0" />
      <stop
         id="stop3012"
         style="stop-color:#aa8800"
         offset="1" />
    </linearGradient>
    <radialGradient
       id="radialGradient3016"
       xlink:href="#linearGradient3010"
       gradientUnits="userSpaceOnUse"
       cy="613.06"
       cx="511.88"
       gradientTransform="matrix(1.4286,2.3955e-6,-1.9164e-6,1.1429,-219.38,-88.302)"
       r="10.079"
       inkscape:collect="always" />
    <radialGradient
       id="radialGradient3082"
       xlink:href="#linearGradient3010"
       gradientUnits="userSpaceOnUse"
       cy="609.75"
       cx="513.57001"
       gradientTransform="matrix(1.4286,2.3955e-6,-1.9164e-6,1.1429,-219.38,-88.302)"
       r="10.079"
       inkscape:collect="always" />
    <filter
       id="filter3901"
       height="1.5352"
       width="1.1554"
       y="-0.26758999"
       x="-0.077675"
       inkscape:collect="always"
       style="color-interpolation-filters:sRGB">
      <feGaussianBlur
         id="feGaussianBlur3903"
         stdDeviation="5.6230651"
         inkscape:collect="always" />
    </filter>
    <radialGradient
       id="radialGradient3913"
       gradientUnits="userSpaceOnUse"
       cy="966.26001"
       cx="644.84998"
       gradientTransform="matrix(-0.06685,-1.0387,2.5373,-0.16327,-1770.7,1751)"
       r="105.88"
       inkscape:collect="always">
      <stop
         id="stop3909"
         style="stop-color:#ffffff"
         offset="0" />
      <stop
         id="stop3911"
         style="stop-color:#806600;stop-opacity:0"
         offset="1" />
    </radialGradient>
    <filter
       id="filter3919"
       inkscape:collect="always"
       style="color-interpolation-filters:sRGB">
      <feGaussianBlur
         id="feGaussianBlur3921"
         stdDeviation="2.355535"
         inkscape:collect="always" />
    </filter>
    <filter
       inkscape:collect="always"
       style="color-interpolation-filters:sRGB"
       id="filter13415"
       x="-0.081590705"
       width="1.1631814"
       y="-0.16505137"
       height="1.3301027">
      <feGaussianBlur
         inkscape:collect="always"
         stdDeviation="2.2208987"
         id="feGaussianBlur13417" />
    </filter>
    <filter
       inkscape:collect="always"
       style="color-interpolation-filters:sRGB"
       id="filter13447"
       x="-0.092067733"
       width="1.1841356"
       y="-0.14558312"
       height="1.2911663">
      <feGaussianBlur
         inkscape:collect="always"
         stdDeviation="2.6748044"
         id="feGaussianBlur13449" />
    </filter>
    <filter
       inkscape:collect="always"
       style="color-interpolation-filters:sRGB"
       id="filter13476"
       x="-0.11039868"
       width="1.2207974"
       y="-0.17571039"
       height="1.3514208">
      <feGaussianBlur
         inkscape:collect="always"
         stdDeviation="2.0814996"
         id="feGaussianBlur13478" />
    </filter>
    <filter
       inkscape:collect="always"
       style="color-interpolation-filters:sRGB"
       id="filter13503"
       x="-0.14459915"
       width="1.2891983"
       y="-0.20740779"
       height="1.4148155">
      <feGaussianBlur
         inkscape:collect="always"
         stdDeviation="1.1308216"
         id="feGaussianBlur13505" />
    </filter>
    <filter
       inkscape:collect="always"
       style="color-interpolation-filters:sRGB"
       id="filter13524"
       x="-0.18684164"
       width="1.3736833"
       y="-0.1949297"
       height="1.3898594">
      <feGaussianBlur
         inkscape:collect="always"
         stdDeviation="2.4349611"
         id="feGaussianBlur13526" />
    </filter>
    <radialGradient
       inkscape:collect="always"
       xlink:href="#linearGradient3010"
       id="radialGradient13557"
       gradientUnits="userSpaceOnUse"
       gradientTransform="matrix(1.4286,2.3955e-6,-1.9164e-6,1.1429,-219.38,-88.302)"
       cx="511.88"
       cy="613.06"
       r="10.079" />
    <radialGradient
       inkscape:collect="always"
       xlink:href="#linearGradient3010"
       id="radialGradient13559"
       gradientUnits="userSpaceOnUse"
       gradientTransform="matrix(1.4286,2.3955e-6,-1.9164e-6,1.1429,-219.38,-88.302)"
       cx="511.88"
       cy="613.06"
       r="10.079" />
    <radialGradient
       inkscape:collect="always"
       xlink:href="#linearGradient3010"
       id="radialGradient13561"
       gradientUnits="userSpaceOnUse"
       gradientTransform="matrix(1.4286,2.3955e-6,-1.9164e-6,1.1429,-219.38,-88.302)"
       cx="511.88"
       cy="613.06"
       r="10.079" />
    <radialGradient
       inkscape:collect="always"
       xlink:href="#linearGradient3010"
       id="radialGradient13563"
       gradientUnits="userSpaceOnUse"
       gradientTransform="matrix(1.4286,2.3955e-6,-1.9164e-6,1.1429,-219.38,-88.302)"
       cx="511.88"
       cy="613.06"
       r="10.079" />
    <radialGradient
       inkscape:collect="always"
       xlink:href="#linearGradient3010"
       id="radialGradient13565"
       gradientUnits="userSpaceOnUse"
       gradientTransform="matrix(1.4286,2.3955e-6,-1.9164e-6,1.1429,-219.38,-88.302)"
       cx="511.88"
       cy="613.06"
       r="10.079" />
    <radialGradient
       inkscape:collect="always"
       xlink:href="#linearGradient3010"
       id="radialGradient13567"
       gradientUnits="userSpaceOnUse"
       gradientTransform="matrix(1.4286,2.3955e-6,-1.9164e-6,1.1429,-219.38,-88.302)"
       cx="511.88"
       cy="613.06"
       r="10.079" />
    <radialGradient
       inkscape:collect="always"
       xlink:href="#linearGradient3010"
       id="radialGradient13569"
       gradientUnits="userSpaceOnUse"
       gradientTransform="matrix(1.4286,2.3955e-6,-1.9164e-6,1.1429,-219.38,-88.302)"
       cx="511.88"
       cy="613.06"
       r="10.079" />
    <radialGradient
       inkscape:collect="always"
       xlink:href="#linearGradient3010"
       id="radialGradient13571"
       gradientUnits="userSpaceOnUse"
       gradientTransform="matrix(1.4286,2.3955e-6,-1.9164e-6,1.1429,-219.38,-88.302)"
       cx="511.88"
       cy="613.06"
       r="10.079" />
    <radialGradient
       inkscape:collect="always"
       xlink:href="#linearGradient3010"
       id="radialGradient13573"
       gradientUnits="userSpaceOnUse"
       gradientTransform="matrix(1.4286,2.3955e-6,-1.9164e-6,1.1429,-219.38,-88.302)"
       cx="511.88"
       cy="613.06"
       r="10.079" />
    <radialGradient
       inkscape:collect="always"
       xlink:href="#linearGradient3010"
       id="radialGradient13575"
       gradientUnits="userSpaceOnUse"
       gradientTransform="matrix(1.4286,2.3955e-6,-1.9164e-6,1.1429,-219.38,-88.302)"
       cx="511.88"
       cy="613.06"
       r="10.079" />
    <radialGradient
       inkscape:collect="always"
       xlink:href="#linearGradient3010"
       id="radialGradient13577"
       gradientUnits="userSpaceOnUse"
       gradientTransform="matrix(1.4286,2.3955e-6,-1.9164e-6,1.1429,-219.38,-88.302)"
       cx="511.88"
       cy="613.06"
       r="10.079" />
    <radialGradient
       inkscape:collect="always"
       xlink:href="#linearGradient3010"
       id="radialGradient13579"
       gradientUnits="userSpaceOnUse"
       gradientTransform="matrix(1.4286,2.3955e-6,-1.9164e-6,1.1429,-219.38,-88.302)"
       cx="511.88"
       cy="613.06"
       r="10.079" />
    <radialGradient
       inkscape:collect="always"
       xlink:href="#linearGradient3010"
       id="radialGradient13581"
       gradientUnits="userSpaceOnUse"
       gradientTransform="matrix(1.4286,2.3955e-6,-1.9164e-6,1.1429,-219.38,-88.302)"
       cx="513.57001"
       cy="609.75"
       r="10.079" />
    <radialGradient
       inkscape:collect="always"
       xlink:href="#linearGradient3010"
       id="radialGradient13583"
       gradientUnits="userSpaceOnUse"
       gradientTransform="matrix(1.4286,2.3955e-6,-1.9164e-6,1.1429,-219.38,-88.302)"
       cx="513.57001"
       cy="609.75"
       r="10.079" />
  </defs>
  <sodipodi:namedview
     id="base"
     bordercolor="#666666"
     inkscape:pageshadow="2"
     inkscape:window-y="1"
     fit-margin-left="0"
     pagecolor="#ffffff"
     inkscape:window-height="1035"
     inkscape:window-maximized="1"
     inkscape:zoom="2.03"
     inkscape:window-x="4"
     showgrid="false"
     borderopacity="1.0"
     inkscape:current-layer="layer1"
     inkscape:cx="154.38546"
     inkscape:cy="104.7043"
     fit-margin-top="0"
     fit-margin-right="0"
     fit-margin-bottom="0"
     inkscape:window-width="1916"
     inkscape:pageopacity="0.0"
     inkscape:document-units="px" />
  <g
     id="layer1"
     inkscape:label="Ebene 1"
     inkscape:groupmode="layer"
     transform="translate(-480.79411,-774.98626)">
    <g
       id="g13528"
       transform="translate(2,-2)">
      <path
         d="m 486.93,924.32 c 0,0 -10.667,3.88 10.667,9.6999 21.333,5.8199 207.59,32.98 224,23.28 16.41,-9.6999 18.461,-21.34 12.718,-29.488 -5.7436,-8.1479 -9.0256,-11.252 -9.0256,-11.252 -24.599,-35.389 -158.91,5.1733 -238.36,7.7599 z"
         inkscape:connector-curvature="0"
         style="opacity:0.57627001;fill:#806600"
         sodipodi:nodetypes="cssscc"
         id="path3923" />
      <path
         d="m 687.55,780.94 c 0,0 -203.75,54.716 -203.75,61.196 0,6.4796 -3.5998,4.3197 17.279,5.7596 20.8788,1.4399 201.59,2.1598 215.26,-10.799 13.679,-12.959 -17.999,-51.836 -21.598,-52.556 -3.5998,-0.71995 -7.1995,-3.5998 -7.1995,-3.5998 z"
         inkscape:connector-curvature="0"
         style="fill:#ffe680"
         id="path3099" />
      <path
         d="m 484.32,843.99 c 0,0 -2.8515,31.385 -1.7323,55.037 0.92743,16.522 -1.1473,26.365 14.138,28.918 114.84,19.158 224.47,20.751 220.86,-3.3202 0,0 1.5612,-15.744 3.8411,-33.054 2.5103,-19.06 1.2702,-61.979 -0.96128,-61.979"
         inkscape:connector-curvature="0"
         style="fill:#ffd42a;stroke:#806600;stroke-width:1px;stroke-linecap:round;stroke-linejoin:round"
         sodipodi:nodetypes="ccccsc"
         id="path3006" />
      <path
         inkscape:connector-curvature="0"
         style="opacity:0.38305;fill:url(#radialGradient3913);filter:url(#filter3919)"
         sodipodi:nodetypes="ccccsc"
         d="m 502.47,852.24 c 0,0 10.33,35.51 5.8107,54.879 -3.7709,15.277 -8.3931,18.12 5.3146,20.41 102.98,17.18 200.88,18.189 197.64,-3.3975 0,0 3.9505,-29.272 7.1786,-46.059 3.2282,-16.787 -4.1761,-38.745 -4.1761,-38.745"
         id="path3905" />
      <path
         d="m 721.53,835 c -1.8129,-31.44 -23.149,-47.137 -24.761,-50.456 -0.80501,-1.6581 -7.1023,-3.6548 -7.2684,-3.5998 0,0 -213.77,50.938 -204.97,63.356"
         inkscape:connector-curvature="0"
         style="fill:#ffe680;stroke:#aa8800;stroke-width:1.00479996"
         sodipodi:nodetypes="cscc"
         id="path3004" />
      <ellipse
         transform="translate(0,308.27)"
         style="color:#000000;fill:url(#radialGradient13557)"
         id="path3008"
         cx="511.88422"
         cy="608.02399"
         rx="10.079295"
         ry="8.6393967" />
      <ellipse
         transform="matrix(0.82314,0.071669,-0.071669,0.82314,167.55,335.27)"
         style="color:#000000;fill:url(#radialGradient13559)"
         id="path3020"
         cx="511.88422"
         cy="608.02399"
         rx="10.079295"
         ry="8.6393967" />
      <ellipse
         transform="matrix(1.1043,0.19141,-0.19141,1.1043,151.24,94.055)"
         style="color:#000000;fill:url(#radialGradient13561)"
         id="path3024"
         cx="511.88422"
         cy="608.02399"
         rx="10.079295"
         ry="8.6393967" />
      <ellipse
         transform="matrix(1.0152,0.18769,-0.18769,1.0152,220.95,188.77)"
         style="color:#000000;fill:url(#radialGradient13563)"
         id="path3032"
         cx="511.88422"
         cy="608.02399"
         rx="10.079295"
         ry="8.6393967" />
      <ellipse
         transform="matrix(0.84784,-0.15939,0.15939,0.84784,113.79,434.47)"
         style="color:#000000;fill:url(#radialGradient13565)"
         id="path3036"
         cx="511.88422"
         cy="608.02399"
         rx="10.079295"
         ry="8.6393967" />
      <ellipse
         transform="matrix(0.9054,0.088118,-0.088118,0.9054,264.82,284.11)"
         style="color:#000000;fill:url(#radialGradient13567)"
         id="path3040"
         cx="511.88422"
         cy="608.02399"
         rx="10.079295"
         ry="8.6393967" />
      <ellipse
         transform="matrix(0.86933,0.14002,-0.14002,0.86933,332.8,255.26)"
         style="color:#000000;fill:url(#radialGradient13569)"
         id="path3044"
         cx="511.88422"
         cy="608.02399"
         rx="10.079295"
         ry="8.6393967" />
      <ellipse
         transform="matrix(0.93507,0.093413,-0.093413,0.93507,273.7,301.88)"
         style="color:#000000;fill:url(#radialGradient13571)"
         id="path3048"
         cx="511.88422"
         cy="608.02399"
         rx="10.079295"
         ry="8.6393967" />
      <ellipse
         transform="matrix(0.94149,-0.078836,0.078836,0.94149,134.04,390.26)"
         style="color:#000000;fill:url(#radialGradient13573)"
         id="path3052"
         cx="511.88422"
         cy="608.02399"
         rx="10.079295"
         ry="8.6393967" />
      <ellipse
         transform="matrix(0.74623,-0.036416,0.036416,0.74623,189.25,492.33)"
         style="color:#000000;fill:url(#radialGradient13575)"
         id="path3056"
         cx="511.88422"
         cy="608.02399"
         rx="10.079295"
         ry="8.6393967" />
      <ellipse
         transform="matrix(1.0742,-0.18804,0.18804,1.0742,-99.617,360.86)"
         style="color:#000000;fill:url(#radialGradient13577)"
         id="path3064"
         cx="511.88422"
         cy="608.02399"
         rx="10.079295"
         ry="8.6393967" />
      <ellipse
         transform="matrix(0.79873,0.011504,-0.011504,0.79873,104.37,368.52)"
         style="color:#000000;fill:url(#radialGradient13579)"
         id="path3076"
         cx="511.88422"
         cy="608.02399"
         rx="10.079295"
         ry="8.6393967" />
      <ellipse
         transform="matrix(0.67157,-0.12625,0.12625,0.67157,165.49,547.84)"
         style="color:#000000;fill:url(#radialGradient13581)"
         id="path3084"
         cx="511.88422"
         cy="608.02399"
         rx="10.079295"
         ry="8.6393967" />
      <ellipse
         transform="matrix(0.67157,-0.12625,0.12625,0.67157,113.66,560.08)"
         style="color:#000000;fill:url(#radialGradient13583)"
         id="path3088"
         cx="511.88422"
         cy="608.02399"
         rx="10.079295"
         ry="8.6393967" />
      <ellipse
         transform="matrix(0.67157,-0.12625,0.12625,0.67157,98.539,534.88)"
         style="color:#000000;fill:url(#radialGradient3082)"
         id="path3080"
         cx="511.88422"
         cy="608.02399"
         rx="10.079295"
         ry="8.6393967" />
      <path
         inkscape:connector-curvature="0"
         transform="matrix(1,-0.074728,0,0.6825,-4.1248,300.81)"
         style="opacity:0.77626995;fill:#fff6d5;filter:url(#filter3901)"
         d="m 679.22,786.7 c 0,0 -149.88,40.753 -149.88,45.58 0,4.8261 -2.648,3.2174 12.71,4.2898 15.358,1.0725 148.29,1.6087 158.35,-8.0434 10.062,-9.6521 -13.24,-38.609 -15.888,-39.145 -2.648,-0.53623 -5.296,-2.6812 -5.296,-2.6812 z"
         id="path3092" />
      <ellipse
         transform="matrix(0.74623,-0.036416,0.036416,0.74623,189.25,492.33)"
         style="color:#000000;fill:url(#radialGradient3016)"
         id="path3094"
         cx="511.88422"
         cy="608.02399"
         rx="10.079295"
         ry="8.6393967" />
      <path
         inkscape:connector-curvature="0"
         id="path13399"
         d="m 693.23486,877.9103 c -4.15041,-2.20406 -2.8079,3.41328 -3.69153,5.66034 -3.19692,0.71496 -6.78477,1.27352 -9.71643,-0.63472 -2.40296,-0.01 -6.01093,0.45732 -6.11099,2.908 -3.82486,2.18736 -8.68639,0.49328 -12.43478,3.0042 -3.58624,2.12922 -8.3099,1.6103 -11.591,4.39428 -0.74145,3.92856 -6.54878,1.95366 -7.61096,5.50235 -1.96793,4.35244 4.22399,1.4105 5.66735,3.22019 3.33656,0.55021 6.86808,1.62724 10.21966,0.52739 2.01664,-1.3661 5.03489,-1.0628 7.42778,-2.84263 1.87344,-2.17275 6.5508,-0.35351 9.28183,0.74684 3.00449,0.59992 6.28183,0.58668 8.93728,-1.23793 2.44242,-2.11851 4.96174,-2.25323 7.13346,-5.18784 2.07218,-3.75135 6.93469,-3.52851 10.65607,-4.023 3.32755,0.17198 4.96756,-3.19401 5.61265,-6.41496 0.1688,-3.30033 -2.00142,-6.47123 -3.54577,-8.85979 -1.49736,-1.91142 -5.73019,-5.32634 -7.32098,-3.45663 -1.38315,2.32196 -2.01203,3.29737 -2.49519,5.22409 -0.20244,0.2961 -0.75628,2.08916 -0.33829,0.63921 l 0.0585,0.39692 -0.13871,0.43369 10e-6,0 z"
         style="opacity:0.33300003;fill:#82a681;fill-opacity:1;fill-rule:evenodd;stroke:none;stroke-width:1px;stroke-linecap:butt;stroke-linejoin:miter;stroke-opacity:1;filter:url(#filter13415)" />
      <path
         inkscape:connector-curvature="0"
         id="path13419"
         d="m 574.12157,853.30011 c -2.82621,0.0357 -5.66305,-0.17734 -8.43898,0.37099 -3.54558,-0.85264 -5.02528,6.02344 -1.79721,6.71418 1.80923,1.04463 4.65103,0.64912 6.27944,2.33044 1.55344,2.55713 1.53832,6.49694 -0.39676,8.92307 -1.6856,2.37223 -3.67665,3.91773 -2.30268,7.19709 0.58103,2.74947 0.21183,2.93862 -2.28492,4.14756 -1.56857,2.06802 -4.64782,1.65714 -6.23951,3.43076 -1.83773,2.25928 -4.56271,2.80507 -7.41727,2.14358 -2.03339,-0.47335 -4.15634,-2.21649 -6.69984,-2.28002 -2.45996,0.3214 -3.27937,3.44226 -5.15652,4.92203 -1.49716,3.22888 1.78246,4.85886 4.38749,5.38238 2.66434,1.32505 5.43317,0.81763 8.16037,-0.15803 3.00112,-0.62145 6.45503,0.95313 9.07018,-1.18063 2.54912,-0.79036 4.05679,-3.07846 6.3072,-4.43702 2.35013,-0.3932 3.82822,-1.846 5.54461,-3.05212 1.39706,-3.01042 4.43363,-4.44261 7.63812,-3.60714 2.39693,-1.01304 4.61147,1.50074 7.13732,-0.16703 2.16702,-1.10293 4.75423,-3.2727 7.12762,-1.39397 3.23931,1.50696 5.64794,3.88172 8.52234,5.7231 3.27727,0.90528 6.07504,-2.94737 5.33456,-5.99518 -0.58786,-2.94917 -3.55284,-4.50397 -5.76042,-6.1371 -1.58324,-1.43558 -5.42485,-1.50828 -3.38679,-4.44121 1.69289,-1.93315 0.45406,-4.94953 -1.17619,-6.25909 -0.87368,-1.54708 -2.56288,-1.58006 -4.3276,-2.76588 -0.5863,-0.26126 -3.25507,-2.0397 -4.90697,-2.23976 -2.54504,-1.0041 -4.95424,-1.73683 -7.14296,-3.3356 -2.18086,-1.53466 -4.92933,-1.63114 -6.8782,-3.00189 0.0507,-0.20308 -0.52212,-0.1393 -1.19643,-0.83351 z"
         style="opacity:0.32699998;fill:#82a681;fill-opacity:1;fill-rule:evenodd;stroke:none;stroke-width:1px;stroke-linecap:butt;stroke-linejoin:miter;stroke-opacity:1;filter:url(#filter13447)" />
      <path
         inkscape:connector-curvature="0"
         id="path13451"
         d="m 698.403,802.60314 c -2.86661,-1.91451 -6.94836,-2.33452 -10.09161,-0.93841 -2.82655,2.39274 4.83692,5.18031 5.21852,5.96322 -3.69676,1.75897 -8.17965,-0.47096 -12.21665,0.5818 -3.80373,0.12199 -7.89779,-3.20873 -7.37542,-7.24374 -0.58804,-5.44297 -10.07606,1.91066 -4.79693,3.7845 3.86921,1.08869 1.25102,6.98786 6.16064,7.23726 3.20592,2.72364 5.88173,6.24192 8.97473,9.17901 3.32041,2.89793 8.10344,5.71099 12.48582,3.31708 2.73396,-1.39558 6.80104,-4.57492 8.43764,-0.34526 2.06752,2.33891 6.28497,5.66285 7.50028,0.7421 0.60707,-3.80746 -1.6183,-7.85699 -5.59009,-8.57448 -3.60767,-1.30737 -6.2357,-1.84708 -6.92932,-5.29942 -0.75134,-3.39862 1.39761,-6.07957 -1.77761,-8.40366 z"
         style="opacity:0.29800002;fill:#82a681;fill-opacity:1;fill-rule:evenodd;stroke:none;stroke-width:1px;stroke-linecap:butt;stroke-linejoin:miter;stroke-opacity:1;filter:url(#filter13476)" />
      <path
         inkscape:connector-curvature="0"
         id="path13480"
         d="m 596.27074,814.66213 c -2.17098,-0.002 -4.34196,0.003 -6.51293,-0.002 -0.87621,0.21419 -2.055,0.59513 -2.13675,1.65948 5.9e-4,0.80652 -0.28501,1.96897 0.76528,2.30258 0.71786,0.20789 1.44739,-0.12622 2.15622,-0.23946 0.89738,-0.23045 1.85584,-0.50173 2.77352,-0.21323 0.89618,-0.1438 1.78499,0.59336 1.56178,1.53604 -0.26098,0.66346 0.20005,1.56346 0.86025,1.77818 0.74261,-0.44883 1.25162,-1.15008 1.55929,-1.74879 0.11456,-0.32351 0.0869,0.51353 0.052,-0.0281 0.27865,-0.47004 0.42242,0.11636 0.65895,-0.42161 0.36118,-0.7485 1.37477,-0.36006 2.0397,-0.29217 0.71888,0.13162 1.65463,0.29791 2.08561,-0.47169 0.41211,-0.78662 1.40214,-0.93531 1.31154,-1.99202 0.36868,-0.99233 0.10505,-2.15492 0.76577,-2.99385 0.45904,-0.45649 0.87747,-0.99767 0.95075,-1.64483 0.54753,-0.0472 0.79552,-0.96578 1.19326,-1.50723 -0.13495,-0.68996 -0.57196,-1.78426 -1.18961,-1.8141 0.14747,-0.44452 -0.93006,0.13959 -1.35313,-0.0351 -0.73634,-0.002 -1.5025,-0.12849 -2.21819,0.0181 -0.18754,0.23482 -0.28865,0.42298 -0.42195,0.21458 -0.0621,0.16938 -0.0737,0.65452 -0.32397,0.28658 0.54148,0.38815 -0.69354,0.27503 -0.1431,0.51749 -0.58854,0.0321 -0.0174,0.65641 -0.59611,0.71954 0.40594,0.67577 -0.7808,-0.1308 -0.33552,0.58414 0.18163,0.14291 0.298,-0.33245 0.14427,0.11006 -0.34813,0.21833 -0.80248,0.15114 -0.41947,0.55427 -0.0673,0.27086 -0.90279,0.55321 -0.31353,0.74453 -0.47404,-0.50322 -0.0891,0.55429 -0.64947,0.39832 -0.60033,0.0252 -1.08929,0.0732 -1.31048,0.76292 -0.0291,0.46408 -1.32563,1.04132 -0.54082,1.17733 0.50307,-0.17691 0.54568,-0.63135 -0.002,-0.18765 -0.14013,0.0701 -0.27807,0.14491 -0.41113,0.2277 z"
         style="opacity:0.28800001;fill:#82a681;fill-opacity:1;fill-rule:evenodd;stroke:none;stroke-width:1px;stroke-linecap:butt;stroke-linejoin:miter;stroke-opacity:1;filter:url(#filter13503)" />
      <path
         inkscape:connector-curvature="0"
         id="path13507"
         d="m 502.01374,888.98488 c -0.99047,-1.12396 -3.87956,0.20862 -5.82943,-0.52593 -3.2449,-0.60283 -5.33539,3.64123 -1.04902,3.95563 1.53461,2.48691 -1.74035,5.44648 -2.44624,8.01599 -1.43647,1.97126 -1.26725,4.45808 -1.25771,6.76586 3.13962,-0.69224 6.81309,-1.23152 6.09748,-5.37907 0.17727,-3.07352 3.03714,-5.59934 6.00155,-3.80609 2.19321,0.72025 4.44824,1.51852 6.76406,1.80723 3.41001,-0.25521 4.22296,3.83906 7.07497,4.67231 2.60987,0.74908 2.93783,4.64154 5.07789,5.16919 1.15442,-3.59427 -1.91018,-6.36779 -4.49144,-8.27895 -2.47987,-2.5914 -4.10978,-6.33685 -3.14242,-9.92813 -1.09816,-2.68005 -4.55894,-3.37027 -5.99964,-5.92078 -1.427,-2.41978 -3.08921,-6.1 -6.23439,-5.83849 -0.91978,2.26769 -1.40557,5.71098 -0.99072,8.22143 1.00375,1.42898 -0.56153,0.78731 0.038,0.0872 0.33189,0.19256 0.31997,0.66848 0.38708,0.98264 z"
         style="opacity:0.32000002;fill:#82a681;fill-opacity:1;fill-rule:evenodd;stroke:none;stroke-width:1px;stroke-linecap:butt;stroke-linejoin:miter;stroke-opacity:1;filter:url(#filter13524)" />
    </g>
  </g>
  <metadata
     id="metadata12857">
    <rdf:RDF>
      <cc:Work>
        <dc:format>image/svg+xml</dc:format>
        <dc:type
           rdf:resource="http://purl.org/dc/dcmitype/StillImage" />
        <cc:license
           rdf:resource="http://creativecommons.org/publicdomain/zero/1.0/" />
        <dc:publisher>
          <cc:Agent
             rdf:about="http://openclipart.org/">
            <dc:title>Openclipart</dc:title>
          </cc:Agent>
        </dc:publisher>
        <dc:title>piece of cheese</dc:title>
        <dc:date>2011-12-28T03:31:29</dc:date>
        <dc:description />
        <dc:source>https://openclipart.org/detail/166638/piece-of-cheese-by-chrisdesign</dc:source>
        <dc:creator>
          <cc:Agent>
            <dc:title>Chrisdesign</dc:title>
          </cc:Agent>
        </dc:creator>
        <dc:subject>
          <rdf:Bag>
            <rdf:li>cheese piece foot</rdf:li>
          </rdf:Bag>
        </dc:subject>
      </cc:Work>
      <cc:License
         rdf:about="http://creativecommons.org/publicdomain/zero/1.0/">
        <cc:permits
           rdf:resource="http://creativecommons.org/ns#Reproduction" />
        <cc:permits
           rdf:resource="http://creativecommons.org/ns#Distribution" />
        <cc:permits
           rdf:resource="http://creativecommons.org/ns#DerivativeWorks" />
      </cc:License>
    </rdf:RDF>
  </metadata>
</svg>
