<?xml version="1.0" encoding="UTF-8" standalone="no"?>
<!-- Created with Inkscape (http://www.inkscape.org/) -->

<svg
   xmlns:dc="http://purl.org/dc/elements/1.1/"
   xmlns:cc="http://creativecommons.org/ns#"
   xmlns:rdf="http://www.w3.org/1999/02/22-rdf-syntax-ns#"
   xmlns:svg="http://www.w3.org/2000/svg"
   xmlns="http://www.w3.org/2000/svg"
   xmlns:sodipodi="http://sodipodi.sourceforge.net/DTD/sodipodi-0.dtd"
   xmlns:inkscape="http://www.inkscape.org/namespaces/inkscape"
   height="185mm"
   width="110mm"
   viewBox="0 0 389.76377 655.51181"
   id="svg3330"
   version="1.1"
   inkscape:version="0.91 r13725"
   sodipodi:docname="bigshampoobottle.svg"
   inkscape:export-filename="/home/algot/Documents/runeman.org/clipart/bottle-potion.png"
   inkscape:export-xdpi="43.717651"
   inkscape:export-ydpi="43.717651">
  <title
     id="title3689">Fix-All Potion Bottle</title>
  <defs
     id="defs3336">
    <filter
       inkscape:collect="always"
       style="color-interpolation-filters:sRGB"
       id="filter3475"
       x="-0.063076533"
       width="1.1261531"
       y="-0.37526798"
       height="1.7505358">
      <feGaussianBlur
         inkscape:collect="always"
         stdDeviation="6.9843604"
         id="feGaussianBlur3477" />
    </filter>
  </defs>
  <sodipodi:namedview
     pagecolor="#ffffff"
     bordercolor="#666666"
     borderopacity="1"
     objecttolerance="10"
     gridtolerance="10"
     guidetolerance="10"
     inkscape:pageopacity="0"
     inkscape:pageshadow="2"
     inkscape:window-width="1916"
     inkscape:window-height="1035"
     id="namedview3334"
     showgrid="false"
     inkscape:zoom="0.57875767"
     inkscape:cx="-140.13747"
     inkscape:cy="492.04083"
     inkscape:window-x="4"
     inkscape:window-y="1"
     inkscape:window-maximized="1"
     inkscape:current-layer="svg3330"
     fit-margin-top="0"
     fit-margin-left="0"
     fit-margin-right="0"
     fit-margin-bottom="0">
    <inkscape:grid
       type="xygrid"
       id="grid3338"
       originx="-107.53535"
       originy="-350.20823" />
  </sodipodi:namedview>
  <metadata
     id="metadata3332">
    <rdf:RDF>
      <cc:Work
         rdf:about="">
        <dc:format>image/svg+xml</dc:format>
        <dc:type
           rdf:resource="http://purl.org/dc/dcmitype/StillImage" />
        <dc:title>Fix-All Potion Bottle</dc:title>
        <dc:date>2017-10-10</dc:date>
        <dc:creator>
          <cc:Agent>
            <dc:title>Algot Runeman</dc:title>
          </cc:Agent>
        </dc:creator>
        <dc:rights>
          <cc:Agent>
            <dc:title>Algot Runeman</dc:title>
          </cc:Agent>
        </dc:rights>
        <dc:publisher>
          <cc:Agent>
            <dc:title>runeman.org</dc:title>
          </cc:Agent>
        </dc:publisher>
        <cc:license
           rdf:resource="http://creativecommons.org/publicdomain/zero/1.0/" />
        <dc:identifier>bottle-potion.svg</dc:identifier>
      </cc:Work>
      <cc:License
         rdf:about="http://creativecommons.org/publicdomain/zero/1.0/">
        <cc:permits
           rdf:resource="http://creativecommons.org/ns#Reproduction" />
        <cc:permits
           rdf:resource="http://creativecommons.org/ns#Distribution" />
        <cc:permits
           rdf:resource="http://creativecommons.org/ns#DerivativeWorks" />
      </cc:License>
    </rdf:RDF>
  </metadata>
  <g
     id="g11825"
     transform="translate(25.226483,15.183033)">
    <path
       sodipodi:nodetypes="csssssccssssscc"
       inkscape:connector-curvature="0"
       id="path3346"
       d="m 125.19855,83.976169 c 0,0 -8.3791,10.09564 -17.71653,19.433071 -9.337442,9.33744 -22.581202,14.68262 -35.433082,17.71654 -11.49507,2.71362 -24.52111,11.48012 -35.43307,16 -7.71592,3.19604 -16.68063,9.42937 -17.71653,17.71653 -17.7165399,141.73229 -17.7165399,283.46457 0,425.19685 1.0359,8.28716 17.71653,17.71654 17.71653,17.71654 85.754922,25.44289 173.984272,26.14156 264.897642,0 0,0 16.63174,-9.43563 17.71654,-17.71654 18.56693,-141.73228 18.56693,-283.46456 0,-425.19685 -1.0848,-8.2809 -10.00062,-14.52049 -17.71654,-17.71653 -10.91196,-4.51988 -23.938,-13.28638 -35.43307,-16 -12.85188,-3.03392 -26.09564,-8.37911 -35.43307,-17.71654 -9.33743,-9.337431 -17.71654,-19.433071 -17.71654,-19.433071 z"
       style="fill:#e9456a;fill-opacity:1;fill-rule:evenodd;stroke:#000000;stroke-width:5;stroke-linecap:butt;stroke-linejoin:miter;stroke-miterlimit:4;stroke-dasharray:none;stroke-opacity:1" />
    <path
       style="opacity:1;fill:#ffffff;fill-opacity:1;stroke:#000000;stroke-width:3.21419978;stroke-linecap:round;stroke-linejoin:miter;stroke-miterlimit:4;stroke-dasharray:none;stroke-dashoffset:0;stroke-opacity:1"
       id="path3344"
       sodipodi:type="arc"
       sodipodi:cx="169.48988"
       sodipodi:cy="84.339195"
       sodipodi:rx="44.684265"
       sodipodi:ry="11.338843"
       sodipodi:start="0"
       sodipodi:end="6.209672"
       sodipodi:open="true"
       d="M 214.17415,84.339195 A 44.684265,11.338843 0 0 1 170.31106,95.676124 44.684265,11.338843 0 0 1 124.8358,84.755879 44.684265,11.338843 0 0 1 167.02747,73.017582 44.684265,11.338843 0 0 1 214.05346,83.50639" />
    <path
       inkscape:connector-curvature="0"
       id="path3340"
       d="m 125.19855,13.110028 0,70.866141 88.58268,0 0,-70.866141 z"
       style="fill:#ffffff;fill-rule:evenodd;stroke:none;stroke-width:1px;stroke-linecap:butt;stroke-linejoin:miter;stroke-opacity:1" />
    <path
       d="M 214.17415,12.339196 A 44.684265,11.338843 0 0 1 170.31106,23.676125 44.684265,11.338843 0 0 1 124.8358,12.75588 44.684265,11.338843 0 0 1 167.02747,1.0175828 44.684265,11.338843 0 0 1 214.05346,11.506391"
       sodipodi:open="true"
       sodipodi:end="6.209672"
       sodipodi:start="0"
       sodipodi:ry="11.338843"
       sodipodi:rx="44.684265"
       sodipodi:cy="12.339196"
       sodipodi:cx="169.48988"
       sodipodi:type="arc"
       id="path3342"
       style="opacity:1;fill:#ffffff;fill-opacity:1;stroke:#000000;stroke-width:3;stroke-linecap:round;stroke-linejoin:miter;stroke-miterlimit:4;stroke-dasharray:none;stroke-dashoffset:0;stroke-opacity:1" />
    <path
       sodipodi:nodetypes="ccccc"
       inkscape:connector-curvature="0"
       id="path3348"
       d="m 36.615868,225.70845 0,212.59843 c 88.582682,18.0119 177.165352,18.09853 265.748032,0 l 0,-212.59843 c -88.58268,18.81743 -177.16535,16.6423 -265.748032,0 z"
       style="fill:#acaf77;fill-opacity:1;fill-rule:evenodd;stroke:#393939;stroke-width:2;stroke-linecap:butt;stroke-linejoin:miter;stroke-miterlimit:4;stroke-dasharray:none;stroke-opacity:1" />
    <path
       inkscape:connector-curvature="0"
       id="path3350"
       d="m 142.91509,23.110029 0,70.86614"
       style="fill:none;fill-rule:evenodd;stroke:#000000;stroke-width:1px;stroke-linecap:butt;stroke-linejoin:miter;stroke-opacity:1" />
    <path
       inkscape:connector-curvature="0"
       id="path3352"
       d="m 125.19855,13.110028 0,70.866141"
       style="fill:none;fill-rule:evenodd;stroke:#000000;stroke-width:1px;stroke-linecap:butt;stroke-linejoin:miter;stroke-opacity:1" />
    <path
       inkscape:connector-curvature="0"
       id="path3354"
       d="m 213.78123,13.110028 0,70.866141"
       style="fill:none;fill-rule:evenodd;stroke:#000000;stroke-width:3;stroke-linecap:butt;stroke-linejoin:miter;stroke-miterlimit:4;stroke-dasharray:none;stroke-opacity:1" />
    <path
       style="fill:none;fill-rule:evenodd;stroke:#000000;stroke-width:1px;stroke-linecap:butt;stroke-linejoin:miter;stroke-opacity:1"
       d="m 150.91509,23.110029 0,70.86614"
       id="path3356"
       inkscape:connector-curvature="0" />
    <path
       inkscape:connector-curvature="0"
       id="path3358"
       d="m 158.91509,25.110029 0,70.86614"
       style="fill:none;fill-rule:evenodd;stroke:#000000;stroke-width:1px;stroke-linecap:butt;stroke-linejoin:miter;stroke-opacity:1" />
    <path
       style="fill:none;fill-rule:evenodd;stroke:#000000;stroke-width:1px;stroke-linecap:butt;stroke-linejoin:miter;stroke-opacity:1"
       d="m 166.91509,25.058194 0,70.86614"
       id="path3360"
       inkscape:connector-curvature="0" />
    <path
       inkscape:connector-curvature="0"
       id="path3362"
       d="m 174.91509,25.058194 0,70.86614"
       style="fill:none;fill-rule:evenodd;stroke:#000000;stroke-width:1px;stroke-linecap:butt;stroke-linejoin:miter;stroke-opacity:1" />
    <path
       style="fill:none;fill-rule:evenodd;stroke:#000000;stroke-width:1px;stroke-linecap:butt;stroke-linejoin:miter;stroke-opacity:1"
       d="m 182.91509,25.110029 0,70.86614"
       id="path3364"
       inkscape:connector-curvature="0" />
    <path
       inkscape:connector-curvature="0"
       id="path3366"
       d="m 190.91509,23.110029 0,70.86614"
       style="fill:none;fill-rule:evenodd;stroke:#000000;stroke-width:1px;stroke-linecap:butt;stroke-linejoin:miter;stroke-opacity:1" />
    <path
       style="fill:none;fill-rule:evenodd;stroke:#000000;stroke-width:1px;stroke-linecap:butt;stroke-linejoin:miter;stroke-opacity:1"
       d="m 198.91509,21.110029 0,70.86614"
       id="path3368"
       inkscape:connector-curvature="0" />
    <path
       inkscape:connector-curvature="0"
       id="path3370"
       d="m 206.91509,19.110029 0,70.86614"
       style="fill:none;fill-rule:evenodd;stroke:#000000;stroke-width:1px;stroke-linecap:butt;stroke-linejoin:miter;stroke-opacity:1" />
    <path
       inkscape:connector-curvature="0"
       id="path3372"
       d="m 134.91509,21.110029 0,70.86614"
       style="fill:none;fill-rule:evenodd;stroke:#000000;stroke-width:1px;stroke-linecap:butt;stroke-linejoin:miter;stroke-opacity:1" />
    <path
       transform="matrix(1.1359041,0,0,0.71365647,-139.53479,-18.133194)"
       sodipodi:nodetypes="csscssc"
       inkscape:connector-curvature="0"
       id="path3386"
       d="m 141.73228,229.68502 c 0,0 58.61691,14.74933 88.58268,17.71653 29.38386,2.90957 59.19882,2.90957 88.58268,0 29.96577,-2.9672 88.58267,-17.71653 88.58267,-17.71653 0,0 -27.16239,29.36524 -52.86614,35.43307 -45.98027,10.85447 -114.51533,13.69059 -159.73228,0 -20.379,-6.17027 -53.14961,-35.43307 -53.14961,-35.43307 z"
       style="fill:#cccccc;fill-rule:evenodd;stroke:none;stroke-width:1px;stroke-linecap:butt;stroke-linejoin:miter;stroke-opacity:1;filter:url(#filter3475)" />
    <g
       transform="matrix(0,-0.66921936,0.54098604,0,-257.14697,-45.322675)"
       style="font-style:normal;font-variant:normal;font-weight:normal;font-stretch:normal;font-size:79.66183472px;line-height:125%;font-family:sans-serif;-inkscape-font-specification:'sans-serif Bold';text-align:center;letter-spacing:0px;word-spacing:0px;text-anchor:middle;fill:#000000;fill-opacity:1;stroke:none;stroke-width:2.8397727;stroke-linecap:butt;stroke-linejoin:miter;stroke-miterlimit:4;stroke-dasharray:none;stroke-opacity:1"
       id="text11784">
      <path
         d="m -657.00334,631.76155 q -5.94992,6.15044 -14.91002,4.95101 -8.9051,-1.20035 -17.85119,-9.85478 -5.17196,-5.00335 -8.16452,-9.63018 -2.93756,-4.62775 -4.94009,-9.27099 l 9.6551,-9.98048 1.17418,1.13589 q 0.75754,5.87424 3.48785,11.27566 2.75827,5.42846 6.56036,9.10659 0.97848,0.94658 2.73427,2.32041 1.7558,1.37383 3.14086,1.95607 1.7169,0.68676 3.22991,0.6892 1.54095,0.0295 2.97434,-1.45222 1.32521,-1.36987 1.09762,-3.48424 -0.1726,-2.11529 -1.89526,-4.81007 -1.80745,-2.83092 -3.9756,-5.84842 -2.11315,-3.01841 -3.67536,-5.99094 -3.60608,-6.78983 -3.11378,-11.94205 0.5473,-5.15314 4.73929,-9.4864 5.62538,-5.81496 14.36821,-4.44688 8.79782,1.36717 16.98909,9.29139 4.10961,3.97563 7.32309,8.65382 3.26848,4.67728 5.04098,8.71914 l -9.27647,9.5891 -1.14622,-1.10885 q -0.56884,-4.44693 -2.93299,-9.33175 -2.30914,-4.88574 -6.11123,-8.56387 -1.34191,-1.29817 -2.87314,-2.40064 -1.47623,-1.10338 -3.19313,-1.79015 -1.49598,-0.63541 -3.11716,-0.52602 -1.59414,0.0814 -2.6489,1.17174 -1.59566,1.64944 -1.20306,3.76108 0.41965,2.08368 3.21104,6.19119 1.83267,2.69296 3.49669,5.16865 1.69198,2.50273 3.36693,5.63844 3.26605,6.19028 2.90715,11.09271 -0.30389,4.90153 -4.46884,9.20684 z"
         style="font-weight:bold;fill:#dcd325;fill-opacity:1;stroke:#000000;stroke-width:3.98309207;stroke-miterlimit:4;stroke-dasharray:none;stroke-opacity:1"
         id="path11794"
         inkscape:connector-curvature="0" />
      <path
         d="m -630.07919,692.67755 -9.42936,-11.58399 19.78933,-16.1085 -13.92305,-17.10449 -19.78932,16.10849 -9.42937,-11.58399 44.91815,-36.56334 9.42937,11.58399 -16.44083,13.38282 13.92304,17.1045 16.44083,-13.38282 9.42936,11.58399 -44.91815,36.56334 z"
         style="font-weight:bold;fill:#dcd325;fill-opacity:1;stroke:#000000;stroke-width:3.98309207;stroke-miterlimit:4;stroke-dasharray:none;stroke-opacity:1"
         id="path11796"
         inkscape:connector-curvature="0" />
      <path
         d="m -592.31372,749.67981 -8.43213,-12.93687 7.62088,-9.74954 -11.72427,-17.98779 -11.99624,3.0367 -8.21973,-12.611 60.2032,-13.70317 9.38791,14.40327 -36.83962,49.5484 z m 6.1096,-31.51538 13.51438,-17.30529 -21.28808,5.37861 7.7737,11.92668 z"
         style="font-weight:bold;fill:#dcd325;fill-opacity:1;stroke:#000000;stroke-width:3.98309207;stroke-miterlimit:4;stroke-dasharray:none;stroke-opacity:1"
         id="path11798"
         inkscape:connector-curvature="0" />
      <path
         d="m -559.95304,810.80112 -6.89813,-13.16054 34.34831,-18.00376 -27.27422,2.17483 -4.78535,-9.12969 17.30623,-21.19215 -34.3483,18.00377 -6.53698,-12.47151 51.29853,-26.88827 8.05384,15.36545 -19.68598,25.03058 31.76674,-1.98242 8.05384,15.36544 -51.29853,26.88827 z"
         style="font-weight:bold;fill:#dcd325;fill-opacity:1;stroke:#000000;stroke-width:3.98309207;stroke-miterlimit:4;stroke-dasharray:none;stroke-opacity:1"
         id="path11800"
         inkscape:connector-curvature="0" />
      <path
         d="m -498.82781,852.8057 q -3.57934,1.52262 -7.54843,1.73157 -3.93329,0.19373 -7.24956,-1.14314 -4.50496,-1.8457 -7.79055,-5.0978 -3.27036,-3.2163 -5.75224,-9.05062 l -3.63907,-8.55463 -17.3598,7.38473 -5.84688,-13.74467 53.29638,-22.67187 9.62298,22.62143 q 2.16213,5.08267 2.74424,8.93528 0.63313,3.87319 0.0212,7.30378 -0.74145,4.11975 -3.31881,7.20286 -2.56213,3.11889 -7.17948,5.08308 z m -6.36696,-14.07295 q 2.25499,-0.95925 3.348,-2.86141 1.1288,-1.91738 1.0879,-3.80216 -0.0545,-2.51303 -0.85084,-4.58371 -0.76051,-2.0859 -2.20701,-5.48627 l -1.00493,-2.36237 -15.96386,6.79091 1.67489,3.93727 q 1.49217,3.50775 2.88094,5.58002 1.404,2.10807 3.3473,3.09904 1.70876,0.83711 3.52728,0.73985 1.86955,-0.0767 4.16033,-1.05117 z"
         style="font-weight:bold;fill:#dcd325;fill-opacity:1;stroke:#000000;stroke-width:3.98309207;stroke-miterlimit:4;stroke-dasharray:none;stroke-opacity:1"
         id="path11802"
         inkscape:connector-curvature="0" />
      <path
         d="m -485.79568,921.99658 q -13.09205,4.51116 -23.39994,-0.32994 -10.27111,-4.85377 -14.83297,-18.09292 -4.54918,-13.20238 0.55183,-23.35297 5.13779,-10.16327 18.22984,-14.67444 13.20237,-4.54918 23.43671,0.31727 10.27111,4.85377 14.82029,18.05615 4.53651,13.16559 -0.55182,23.35297 -5.05157,10.17469 -18.25394,14.72388 z m -20.31429,-13.94141 q 3.21035,1.19774 6.93583,1.02486 3.76225,-0.18554 8.35918,-1.76952 4.9279,-1.69802 7.99197,-4.02921 3.06406,-2.33119 4.56344,-4.90492 1.56026,-2.63586 1.70419,-5.44195 0.15659,-2.76932 -0.75578,-5.41715 -0.92504,-2.6846 -2.70487,-4.74554 -1.76716,-2.02416 -4.65796,-3.24972 -2.69301,-1.12915 -6.73928,-1.05145 -3.99681,0.1018 -8.77762,1.74913 -4.89113,1.68536 -7.96786,3.97977 -3.02729,2.31852 -4.56345,4.90493 -1.53616,2.5864 -1.71686,5.40517 -0.1807,2.81876 0.75702,5.54014 0.93771,2.72138 2.81644,4.83052 1.91549,2.09647 4.75561,3.17494 z"
         style="font-weight:bold;fill:#dcd325;fill-opacity:1;stroke:#000000;stroke-width:3.98309207;stroke-miterlimit:4;stroke-dasharray:none;stroke-opacity:1"
         id="path11804"
         inkscape:connector-curvature="0" />
      <path
         d="m -467.99271,990.05164 q -13.42923,3.3776 -23.28644,-2.32539 -9.8195,-5.71248 -13.23505,-19.29259 -3.40607,-13.5424 2.54246,-23.22072 5.98625,-9.68781 19.41548,-13.06541 13.54239,-3.40607 23.32416,2.3159 9.8195,5.71248 13.22557,19.25487 3.39658,13.50467 -2.54247,23.22072 -5.90132,9.70655 -19.44371,13.11262 z m -19.05062,-15.62393 q 3.09644,1.4673 6.82309,1.61295 3.76436,0.13615 8.47968,-1.04981 5.05482,-1.27134 8.30662,-3.33258 3.2518,-2.06124 4.96533,-4.49765 1.77948,-2.49311 2.16232,-5.27669 0.39232,-2.74585 -0.29079,-5.46187 -0.6926,-2.75375 -2.29008,-4.95904 -1.588,-2.16756 -4.36369,-3.63532 -2.58684,-1.35482 -6.62498,-1.62266 -3.99093,-0.23961 -8.89486,0.99379 -5.0171,1.26185 -8.27839,3.28537 -3.21408,2.05175 -4.96532,4.49765 -1.75125,2.4459 -2.17181,5.23896 -0.42056,2.79307 0.28153,5.58454 0.70209,2.79147 2.39399,5.05322 1.72963,2.25227 4.46736,3.56914 z"
         style="font-weight:bold;fill:#dcd325;fill-opacity:1;stroke:#000000;stroke-width:3.98309207;stroke-miterlimit:4;stroke-dasharray:none;stroke-opacity:1"
         id="path11806"
         inkscape:connector-curvature="0" />
    </g>
    <path
       style="fill:none;fill-rule:evenodd;stroke:#000000;stroke-width:3;stroke-linecap:butt;stroke-linejoin:miter;stroke-miterlimit:4;stroke-dasharray:none;stroke-opacity:1"
       d="m 126.91509,17.110029 0,70.86614"
       id="path3687"
       inkscape:connector-curvature="0" />
  </g>
</svg>
