<!-- Generator: Adobe Illustrator 22.1.0, SVG Export Plug-In  -->
<svg version="1.1"
	 xmlns="http://www.w3.org/2000/svg" xmlns:xlink="http://www.w3.org/1999/xlink" xmlns:a="http://ns.adobe.com/AdobeSVGViewerExtensions/3.0/"
	 x="0px" y="0px" width="246.7px" height="515.1px" viewBox="0 0 246.7 515.1" style="enable-background:new 0 0 246.7 515.1;"
	 xml:space="preserve">
<style type="text/css">
	.st0{fill:#565656;}
	.st1{fill:#383629;}
	.st2{fill:#3F3F3F;}
</style>
<defs>
</defs>
<path class="st0" d="M213.5,515.1H33.2c-6.6,0-12-5.4-12-12v-413c0-6.6,5.4-12,12-12h180.3c6.6,0,12,5.4,12,12v413
	C225.5,509.7,220.1,515.1,213.5,515.1z"/>
<path class="st1" d="M236.1,515.1L236.1,515.1c-5.8,0-10.6-4.8-10.6-10.6v-37.8c0-5.8,4.8-10.6,10.6-10.6h0
	c5.8,0,10.6,4.8,10.6,10.6v37.8C246.7,510.3,241.9,515.1,236.1,515.1z"/>
<path class="st1" d="M10.6,513.7L10.6,513.7c-5.8,0-10.6-4.8-10.6-10.6v-37.8c0-5.8,4.8-10.6,10.6-10.6h0c5.8,0,10.6,4.8,10.6,10.6
	v37.8C21.2,508.9,16.4,513.7,10.6,513.7z"/>
<path class="st0" d="M203.4,104.2H43.3c-6.6,0-12-5.4-12-12V12c0-6.6,5.4-12,12-12h160.1c6.6,0,12,5.4,12,12v80.2
	C215.4,98.8,210,104.2,203.4,104.2z"/>
<path class="st2" d="M194.3,101.2H53.2c-6.6,0-12-5.4-12-12V21c0-6.6,5.4-12,12-12h141.1c6.6,0,12,5.4,12,12v68.2
	C206.3,95.8,200.9,101.2,194.3,101.2z"/>
<path class="st0" d="M224.1,115.1H22.6c-6.6,0-12-5.4-12-12v-20c0-6.6,5.4-12,12-12h201.5c6.6,0,12,5.4,12,12v20
	C236.1,109.7,230.7,115.1,224.1,115.1z"/>
<path d="M62.7,30.5h143.6V21c0-6.6-5.4-12-12-12H53.2c-6.6,0-12,5.4-12,12v50.1h21.6V30.5z"/>
<polygon class="st2" points="22.6,115.1 225.5,152.1 225.5,114.6 "/>
</svg>