<!-- Generator: Adobe Illustrator 22.1.0, SVG Export Plug-In  -->
<svg version="1.1"
	 xmlns="http://www.w3.org/2000/svg" xmlns:xlink="http://www.w3.org/1999/xlink" xmlns:a="http://ns.adobe.com/AdobeSVGViewerExtensions/3.0/"
	 x="0px" y="0px" width="405.4px" height="631.6px" viewBox="0 0 405.4 631.6" style="enable-background:new 0 0 405.4 631.6;"
	 xml:space="preserve">
<style type="text/css">
	.st0{fill:#3E89B5;}
	.st1{fill:#DAF1FD;}
	.st2{fill:#FEFEFE;}
	.st3{fill:#8AD6E8;}
</style>
<defs>
</defs>
<path class="st0" d="M53.4,155.8c0-2.4,0-4.8,0-7.1c0-2.1,0-4.2,0-6.2c0-3.4,0-6.8,0.1-10.2c0-2.1,0-4.1,0-6.2
	c0.1-16.3,0.3-32.6,0.4-48.8c0.1-16.6,5.6-24.7,21.5-29.6c9.1-2.8,18.7-4.1,28.1-5.7c3.2-0.5,4.4-1.6,4.3-4.8
	c-0.2-6.3,0-12.7-0.1-19c-0.1-3.5,1.1-5.8,4.3-7.4c24.8-13,49.9-14.5,75.5-2.2c4.8,2.3,6.6,5.3,5.8,10.4c-0.3,1.9-0.1,4-0.1,6.5
	c14.5-2.6,28.5-5.1,42.4-7.7c20.2-3.8,40.4-7.8,60.6-11.4c12.3-2.2,24.2-1.7,36.1,3.7c17.3,7.8,35.3,14.2,52.9,21.1
	c2.4,0.9,4.7,2,7.1,3c9,3.8,13.3,9.4,13,20.4c-2.3,81.9-3.8,163.8-5.5,245.7c-1.5,72.3-2.8,144.6-4.2,216.9
	c-0.1,4.2-0.7,8.5-1.6,12.7c-1.3,5.8-5.1,9.6-10.5,11.8c-70.4,28.3-140.9,56.2-211,85c-18.8,7.7-35.4,6.3-52.4-3.7
	c-7.2-4.2-14.9-7.7-22.3-11.5c-1-0.4-1.9-0.8-2.9-1.3c0,0,0,0,0,0c-10.2-5.4-20.3-11.2-30.8-16c-9.5-4.4-14.2-11.4-14.6-21.5
	c-0.2-4.3,0-8.6,0.1-12.8c0.1-10.9,0.2-21.9,0.3-32.8c0.2-2.4,0.5-4.8,0.5-7.1c0.4-57.4,0.9-114.8,1.3-172.2c0-1.2-0.1-2.4-0.1-3.6
	c0.4-36.4,0.8-72.8,1.2-109.3C53.1,208.5,53.2,182.2,53.4,155.8z M217.2,601.3c0.4-0.2,0.8-0.3,1.2-0.5c0.6-0.2,1.3-0.4,1.9-0.7
	c1-0.4,2-0.7,3-1.1c28.6-11.4,57.2-22.8,85.8-34.3c22.5-9.1,44.9-18.6,67.5-27.5c9.5-3.8,11.7-5.8,12.4-16.3
	c0.2-0.6,0.7-1.2,0.7-1.9c0.1-13.8,0.1-27.6,0.1-41.4c0.8-41.2,1.6-82.4,2.3-123.6c0.4-20.8,0.6-41.7,0.9-62.5
	c0.4-10.4,0.8-20.8,1-31.2c0.7-31.4,1.3-62.9,1.9-94.3c0.9-38.8,1.7-77.6,2.6-116.9c-4.6,0.7-8.3,1.2-12,1.8
	c-40.7,6.7-81.4,13.2-122,20.2c-29,5-57.9,10.7-86.8,16c-1.1,0.2-2.2,0-3.4,0c52-15.4,105.3-23.2,158-34.2c1.4-0.3,2.8-0.6,4.2-0.8
	c1.2-0.2,2.5-0.4,3.7-0.6c11.4-1.8,22.9-3.5,34.3-5.3c5.7-0.9,11.4-2,17.1-2.9c-1.3-1.7-2.4-2.3-3.7-2.8
	c-20.3-8.1-40.8-15.9-60.9-24.3c-9.7-4.1-19.3-4.9-29.5-3.1c-32.2,5.9-64.4,11.6-96.7,17.4c-8.6,1.6-8.6,1.7-8.2,10.7
	c0,0.2,0.1,0.3,0.1,0.5c-1,12.1-9.8,16.9-19.6,20.3c-10.5,3.7-21.5,4.1-32.4,3c-12-1.2-23.5-4.4-32.5-13.3c-0.2-2,0.2-4.4-3.2-3.8
	c-10.2,2-20.5,3.7-30.6,6.2c-9.5,2.4-13.6,8.4-13.8,18.4c-0.2,13.7-0.6,27.4-0.7,41.1c-0.4,40.6-0.7,81.2-1,121.8
	c-0.3,39.2-0.7,78.4-1.1,117.6c-0.4,42.8-0.7,85.6-1,128.4c-0.2,29.3-0.1,58.6-0.4,87.9c-0.1,7.3,2.6,12.7,8.8,16.1
	c7,3.9,14.3,7.3,21.4,11c16.1,8.4,32.2,16.8,48.2,25.3c9,4.7,18.4,5.2,27.8,1.7c9-3.3,17.9-6.9,26.7-10.5
	C198.8,609.3,208,605.2,217.2,601.3L217.2,601.3z M187.5,20.3C162.4,36,138,31.8,113.3,20.3c0,7.9,0.2,15.3-0.1,22.6
	c-0.2,4.2,1.5,6.6,5,8.6c18.2,10.3,37.3,9.9,56.7,5c6.5-1.6,12-5.8,12.5-13.4C187.8,35.8,187.5,28.4,187.5,20.3z M185.8,15.5
	C168.5,2.9,132,2.5,116,14.8C134.9,28.6,171.2,29,185.8,15.5z"/>
<path class="st1" d="M50,527.1c-0.1,10.9-0.2,21.9-0.3,32.8c0,4.3-0.2,8.6-0.1,12.8c0.4,10.2,5.1,17.1,14.6,21.5
	c10.5,4.8,20.5,10.7,30.8,16c-4.7-1.4-9.4-2.6-14-4.3c-7.1-2.5-14-5.7-21.1-7.8c-9.1-2.6-16.5-7.8-23.8-13.5
	c-10.1-7.9-20.4-15.3-30.6-23.1c-6.8-5.2-7.2-12.2-1.2-18.6c7.7-8.2,17.9-11.6,28.5-13.8C38.4,528.2,44.2,527.8,50,527.1z"/>
<path class="st1" d="M53.6,126c0,2.1,0,4.1,0,6.2C50.6,130.1,50.6,128.1,53.6,126z"/>
<path class="st1" d="M53.5,142.5c0,2.1,0,4.2,0,6.2C50.6,146.6,50.6,144.5,53.5,142.5z"/>
<path class="st1" d="M94.9,610.3c1,0.4,1.9,0.8,2.9,1.3C96.9,611.1,95.9,610.7,94.9,610.3z"/>
<path class="st2" d="M389.1,521c-0.8,10.5-2.9,12.5-12.4,16.3c-22.6,8.9-45,18.4-67.5,27.5c-28.6,11.5-57.2,22.9-85.8,34.3
	c-1,0.4-2,0.7-3,1.1c-0.6,0.2-1.3,0.4-1.9,0.6c-0.4,0.2-0.8,0.3-1.2,0.5c0,0,0,0,0,0c-1.5,0.1-3.1,0-4.5,0.4
	c-12.2,3.6-24.4,7.5-36.7,11c-6.7,1.9-13.5,3.5-20.3,5.2c-2.7-0.3-6.1,0.4-5.4-4.2c0.4-1.4,1-2.9,1.1-4.4
	c1.3-53.6,2.6-107.2,3.7-160.8c0.7-33.4,1-66.8,1.5-100.2c1.7-0.2,3.5-0.1,5.1-0.5c16.7-4.1,33.4-8.3,50.1-12.4
	c24.2-5.9,48.3-11.7,72.5-17.5c19.9-4.8,39.8-9.4,59.7-14.2c16.4-3.9,32.8-8,49.1-12.1c-0.3,20.8-0.6,41.7-0.9,62.5
	c-0.7,41.2-1.6,82.4-2.3,123.6c-0.2,0.6-0.7,1.2-0.7,1.9C389.1,493.4,389.1,507.2,389.1,521z"/>
<path class="st2" d="M108.3,51.8c9,8.8,20.4,12.1,32.5,13.3c10.9,1.1,21.9,0.7,32.4-3c9.7-3.4,18.6-8.2,19.6-20.3
	c1.2-1.4,2.2-3.7,3.6-4c30.9-6.3,61.8-12.6,92.9-18.4c12-2.2,24.1-2.9,35.9,1.7c11,4.3,22,8.5,32.9,12.8c6.1,2.4,12.1,5,18.2,7.5
	c-6.3,2.6-12.4,3.9-18.4,5.4c-5.8,1.5-11.6,3.2-17.4,4.8c-1.2,0.2-2.5,0.4-3.7,0.6c-1.4,0.3-2.8,0.6-4.2,0.8
	c-52.7,10.9-106.1,18.8-158,34.2c1.1,0,2.3,0.2,3.4,0c28.9-5.3,57.8-11,86.8-16c40.6-7,81.4-13.5,122-20.2c3.7-0.6,7.4-1.1,12-1.8
	c-0.9,39.3-1.7,78.1-2.6,116.9c-13.9,3.2-27.8,6.4-41.7,9.7c-21.9,5.2-43.7,10.6-65.6,15.8c-30.9,7.2-61.8,14.4-92.7,21.5
	c-12.8,2.9-25.6,5.7-38.4,8.6c-0.1-2.4-0.1-4.8-0.2-7.2c-0.6-39.9-1.2-79.7-1.7-119.6c-0.1-5.4-2.6-8.6-7.3-10.5
	c-6.3-2.5-12.5-5.6-19-7.7c-18.3-6.1-36.7-11.8-55-17.6c3.4-1,6.7-2.1,10.1-2.8C92.4,54.6,100.3,53.3,108.3,51.8z M216.7,89.1
	c0,0.6,0.1,1.1,0.1,1.7c4.3,0,8.7,0.4,13-0.1c9.6-1,19.2-2.6,28.8-3.7c13.2-1.5,26.4-3,39.6-4.3c15.9-1.5,31.8-3.1,47.8-3.9
	c17.8-0.9,30,14.2,32.7,29.7c2.3,13,4.9,26,7.4,39c0.2,1,0.6,1.9,0.9,2.8c0.6-0.4,1.2-0.8,1.8-1.3c0.1-1.6,0.2-3.3,0.2-4.9
	c0-24-0.3-48,0.2-71.9c0.2-9.4-6.5-13.2-14.6-11.6c-14.6,2.9-29.4,5.2-44.1,7.9c-13.9,2.5-27.7,5.2-41.6,7.8
	c-8.2,1.5-16.4,3-24.5,4.5C248.4,83.6,232.6,86.3,216.7,89.1z M207.6,92.2c-0.1-0.3-0.2-0.7-0.4-0.7c-0.2-0.1-0.5,0.1-0.8,0.2
	c0.2,0.3,0.3,0.6,0.5,1C207.1,92.5,207.4,92.4,207.6,92.2z"/>
<path class="st3" d="M157.6,221.6c12.8-2.9,25.6-5.7,38.4-8.6c30.9-7.1,61.8-14.2,92.7-21.5c21.9-5.1,43.7-10.5,65.6-15.8
	c13.9-3.3,27.8-6.5,41.7-9.7c-0.6,31.4-1.2,62.9-1.9,94.3c-0.2,10.4-0.7,20.8-1,31.2c-16.4,4-32.7,8.1-49.1,12.1
	c-19.9,4.8-39.8,9.4-59.7,14.2c-24.2,5.8-48.3,11.6-72.5,17.5c-16.7,4.1-33.4,8.3-50.1,12.4c-1.6,0.4-3.4,0.4-5.1,0.5
	c0.3-25.1,0.6-50.2,0.8-75.4C157.5,255.8,157.5,238.7,157.6,221.6z"/>
<path class="st3" d="M108.3,51.8c-8,1.4-16,2.8-23.9,4.3C81,56.8,77.7,58,74.3,59c-1.1,0.1-2.2,0.1-3.3,0.2
	c-1.6,1.6-4.3,2.9-4.7,4.7c-1.5,6.6-3.2,13.3-3.3,20c-0.5,113.8-0.8,227.5-1.1,341.3c-0.1,50.9,0,101.8,0,152.7
	c3.7,0.4,7.4,1.5,10.9,1.2c7.8-0.8,15.5-2.4,23.3-3.3c1.9-0.2,4.7,0.6,6,1.9c5.4,5.7,10.2,12,15.6,17.7c5,5.3,10.6,10,15.9,15
	c8.6,11.3,12.5,12.7,22,7.6c6.8-1.7,13.6-3.3,20.3-5.2c12.3-3.6,24.5-7.4,36.7-11c1.4-0.4,3-0.3,4.5-0.4c-9.2,3.9-18.4,8-27.7,11.8
	c-8.9,3.6-17.7,7.2-26.7,10.5c-9.5,3.5-18.8,3-27.8-1.7c-16.1-8.4-32.1-16.9-48.2-25.3c-7.1-3.7-14.4-7.1-21.4-11
	c-6.2-3.4-8.9-8.8-8.8-16.1c0.3-29.3,0.2-58.6,0.4-87.9c0.3-42.8,0.6-85.6,1-128.4c0.3-39.2,0.7-78.4,1.1-117.6
	c0.4-40.6,0.7-81.2,1-121.8c0.1-13.7,0.5-27.4,0.7-41.1c0.2-10,4.2-16.1,13.8-18.4c10.1-2.5,20.4-4.1,30.6-6.2
	C108.5,47.4,108.1,49.8,108.3,51.8z"/>
<path class="st3" d="M187.5,20.3c0,8.1,0.3,15.5-0.1,22.8c-0.5,7.6-6,11.7-12.5,13.4c-19.4,4.9-38.5,5.3-56.7-5
	c-3.5-2-5.1-4.4-5-8.6c0.3-7.3,0.1-14.7,0.1-22.6C138,31.8,162.4,36,187.5,20.3z"/>
<path class="st3" d="M340.4,51.6c5.8-1.6,11.6-3.3,17.4-4.8c6.1-1.5,12.2-2.9,18.4-5.4c-6.1-2.5-12.1-5.1-18.2-7.5
	c-11-4.3-22-8.5-32.9-12.8c-11.8-4.6-24-3.9-35.9-1.7c-31,5.8-61.9,12.1-92.9,18.4c-1.4,0.3-2.4,2.6-3.6,4c0-0.2-0.1-0.3-0.1-0.5
	c-0.3-9.1-0.3-9.2,8.2-10.7c32.2-5.8,64.5-11.6,96.7-17.4c10.2-1.9,19.8-1,29.5,3.1c20.2,8.4,40.6,16.2,60.9,24.3
	c1.2,0.5,2.4,1.2,3.7,2.8c-5.7,1-11.4,2-17.1,2.9C363.2,48.1,351.8,49.8,340.4,51.6z"/>
<path class="st3" d="M185.8,15.5C171.2,29,134.9,28.6,116,14.8C132,2.5,168.5,2.9,185.8,15.5z"/>
<path class="st3" d="M389.1,521c0-13.8,0-27.6,0.1-41.4c0-0.6,0.4-1.2,0.7-1.9c0,13.8,0,27.6-0.1,41.4
	C389.8,519.8,389.3,520.4,389.1,521z"/>
<path class="st3" d="M332.4,53.1c1.4-0.3,2.8-0.6,4.2-0.8C335.2,52.5,333.8,52.8,332.4,53.1z"/>
<path class="st3" d="M220.3,600.2c1-0.4,2-0.7,3-1.1C222.3,599.5,221.3,599.8,220.3,600.2z"/>
<path class="st3" d="M217.2,601.3c0.4-0.2,0.8-0.3,1.2-0.5C218,601,217.6,601.1,217.2,601.3z"/>
<path class="st1" d="M155.7,617.9c-9.5,5.1-13.4,3.7-22-7.6c-0.7-1.5-1.1-3.3-2.2-4.5c-7.9-9.7-15.6-19.5-24-28.7
	c-3.3-3.7-4.4-7.1-4.4-11.8c-0.3-105.6-0.7-211.3-1.2-316.9c0-2.7-0.5-5.4-0.8-8.1c0.1-0.1,0.3-0.2,0.3-0.3c0-0.3-0.1-0.5-0.1-0.8
	c-0.5-2.6-1-5.3-1.5-7.9c0-10.6,0-21.2,0-31.8c-1.4,13.5-2.4,26.9-3,40.4c-0.7,16.9-1.2,33.8-1.7,50.7c-0.8,25.6-1.7,51.3-2.4,76.9
	c-0.5,20.5-0.9,41.1-1,61.6c-0.4,46.8-0.7,93.5-1,140.3c0,1-0.1,2.1-0.1,3.1c-9.6,1.8-19.1,3.7-28.7,5.5c0-50.9-0.1-101.8,0-152.7
	c0.3-113.8,0.6-227.5,1.1-341.3c0-6.7,1.7-13.4,3.3-20c0.4-1.8,3.1-3.2,4.7-4.7c10.9,4.6,21.9,9.1,32.8,13.7
	c5.9,3.3,11.7,6.6,17.6,9.8c7.4,4,14.9,8,22.4,11.9c-14,12.9-28,25.7-42.1,38.6C91.4,112,80.3,90.4,68,69.5
	c-0.6,0.3-1.2,0.5-1.8,0.8c2,5.5,4,11,6.1,16.5c0,0.3-0.2,0.7-0.1,1c5.3,20.6,10.2,41.3,16.1,61.7c2.4,8.5,8.8,9.6,14.4,2.8
	c10.8-13,20.9-26.5,31.1-39.8c1.8-2.4,2.9-5.3,4.3-7.9c0.3-0.4,0.6-0.8,1-1.1c0.3-0.4,0.7-0.7,1-1.1c1.7-2.1,3.5-4.1,5.2-6.2
	c0.3,2,1,3.9,0.9,5.9c-0.5,14-1.4,28-1.9,41.9c-0.8,27-1.4,54-2.1,81c-0.4,14.2-0.7,28.4-1,42.5c-0.4,20.9-1,41.7-1,62.6
	c0,28.6,0.3,57.2,1,85.7c0.5,21.7,2,43.3,3,65c0.8,16.9,1.4,33.8,2.3,50.6c0.1,1.7,1.1,3.4,1.7,5c0.1,23.9,0.1,47.8,0.4,71.7
	c0,1.8,1.2,3.6,1.9,5.5C149.6,618.3,153.1,617.6,155.7,617.9z"/>
<path class="st0" d="M150.4,613.7c-0.7-1.8-1.9-3.6-1.9-5.5c-0.2-23.9-0.3-47.8-0.4-71.7c0.1-1.2,0.3-2.4,0.3-3.6
	c0.3-42.5,0.5-84.9,0.9-127.4c0.2-24.5,0.6-48.9,0.9-73.4c0.3-21.2,0.9-42.4,0.9-63.7c-0.1-57-0.5-114-0.6-171
	c0-3.8-1.4-6.3-4.8-7.6c-13.9-5.7-27.8-11.3-41.7-17C92.9,68.3,82,63.7,71,59.2c1.1-0.1,2.2-0.1,3.3-0.2c18.4,5.9,36.8,11.6,55,17.6
	c6.5,2.1,12.7,5.2,19,7.7c4.8,1.9,7.3,5.1,7.3,10.5c0.5,39.9,1.1,79.7,1.7,119.6c0,2.4,0.1,4.8,0.2,7.2c-0.1,17.1,0,34.2-0.2,51.3
	c-0.2,25.1-0.5,50.2-0.8,75.4c-0.5,33.4-0.8,66.8-1.5,100.2c-1.1,53.6-2.4,107.2-3.7,160.8C151.4,610.8,150.7,612.2,150.4,613.7z"/>
<path class="st1" d="M216.7,89.1c15.9-2.8,31.7-5.6,47.6-8.4c8.2-1.5,16.4-3,24.5-4.5c13.9-2.6,27.7-5.3,41.6-7.8
	c14.7-2.7,29.5-4.9,44.1-7.9c8.1-1.6,14.8,2.2,14.6,11.6c-0.5,24-0.2,48-0.2,71.9c0,1.6-0.1,3.3-0.2,4.9c-0.6,0.4-1.2,0.8-1.8,1.3
	c-0.3-0.9-0.7-1.9-0.9-2.8c-2.5-13-5-26-7.4-39C375.9,93.1,363.8,78,346,78.8c-16,0.8-31.9,2.4-47.8,3.9C285,84,271.8,85.4,258.6,87
	c-9.6,1.1-19.2,2.7-28.8,3.7c-4.3,0.5-8.6,0.1-13,0.1C216.8,90.2,216.8,89.7,216.7,89.1z"/>
<path class="st1" d="M207.6,92.2c-0.2,0.2-0.5,0.3-0.7,0.5c-0.2-0.3-0.3-0.6-0.5-1c0.3-0.1,0.6-0.3,0.8-0.2
	C207.4,91.6,207.5,92,207.6,92.2z"/>
<path class="st0" d="M100,231.2c0.5,2.6,1,5.3,1.5,7.9c-0.1,0.4-0.2,0.7-0.3,1.1c0.3,2.7,0.7,5.4,0.8,8.1
	c0.4,105.6,0.9,211.3,1.2,316.9c0,4.7,1,8.2,4.4,11.8c8.4,9.2,16.1,19,24,28.7c1,1.3,1.5,3,2.2,4.5c-5.3-5-10.9-9.7-15.9-15
	c-5.4-5.7-10.2-12-15.6-17.7c-1.3-1.4-4.1-2.2-6-1.9c-7.8,0.9-15.5,2.5-23.3,3.3c-3.6,0.3-7.3-0.7-10.9-1.2
	c9.6-1.8,19.1-3.7,28.7-5.5c3.6-1,7.5-0.8,7.5-6.8c0-51.6,0.4-103.1,0.6-154.7c0.1-26.5-0.5-53-0.3-79.5
	C98.6,298,99.4,264.6,100,231.2z"/>
<path class="st3" d="M103.9,72.8c13.9,5.7,27.8,11.3,41.7,17c3.4,1.4,4.8,3.9,4.8,7.6c0.2,57,0.6,114,0.6,171
	c0,21.2-0.6,42.4-0.9,63.7c-0.3,24.5-0.7,48.9-0.9,73.4c-0.4,42.5-0.6,84.9-0.9,127.4c0,1.2-0.2,2.4-0.3,3.6c-0.6-1.7-1.6-3.3-1.7-5
	c-0.8-16.9-1.5-33.8-2.3-50.6c-1-21.7-2.4-43.3-3-65c-0.7-28.6-0.9-57.1-1-85.7c0-20.9,0.6-41.7,1-62.6c0.3-14.2,0.6-28.4,1-42.5
	c0.7-27,1.3-54,2.1-81c0.4-14,1.3-28,1.9-41.9c0.1-1.9-0.6-3.9-0.9-5.9c-0.5-0.5-0.9-1.1-1.4-1.6c-7.5-4-14.9-7.9-22.4-12
	C115.6,79.4,109.8,76.1,103.9,72.8z"/>
<path class="st3" d="M100,231.2c-0.6,33.4-1.3,66.7-1.6,100.1c-0.2,26.5,0.4,53,0.3,79.5c-0.1,51.6-0.6,103.1-0.6,154.7
	c0,6-3.8,5.8-7.5,6.8c0.1-1,0.1-2.1,0.1-3.1c0.3-46.8,0.6-93.5,1-140.3c0.2-20.5,0.5-41.1,1-61.6c0.7-25.6,1.6-51.3,2.4-76.9
	c0.5-16.9,1-33.8,1.7-50.7c0.6-13.5,1.6-26.9,3-40.4C100,210,100,220.6,100,231.2z"/>
<path class="st3" d="M138.1,104.6c-1.4,2.7-2.5,5.6-4.3,7.9c-10.2,13.4-20.4,26.9-31.1,39.8c-5.6,6.8-12,5.6-14.4-2.8
	c-5.9-20.4-10.8-41.1-16.1-61.7c-0.1-0.3,0.1-0.7,0.1-1c7.8,17.1,15.7,34.1,23.5,51.2c2.5,5.6,4.2,6.1,8.3,1.7
	c10.6-11.2,21-22.5,31.6-33.7C136.4,105.4,137.3,105.1,138.1,104.6z"/>
<path class="st0" d="M138.1,104.6c-0.8,0.5-1.8,0.8-2.4,1.4c-10.5,11.2-21,22.5-31.6,33.7c-4.2,4.4-5.8,3.9-8.3-1.7
	c-7.8-17.1-15.7-34.1-23.5-51.2c-2-5.5-4-11-6.1-16.5c0.6-0.3,1.2-0.5,1.8-0.8c12.3,20.9,23.4,42.5,33.8,63.7
	c14-12.9,28-25.7,42.1-38.6c0.5,0.5,0.9,1.1,1.4,1.6c-1.7,2.1-3.5,4.1-5.2,6.2c-0.3,0.4-0.7,0.7-1,1.1
	C138.8,103.9,138.5,104.2,138.1,104.6z"/>
<path class="st3" d="M139.1,103.5c0.3-0.4,0.7-0.7,1-1.1C139.8,102.7,139.4,103.1,139.1,103.5z"/>
<path class="st3" d="M101.2,240.3c0.1-0.4,0.2-0.7,0.3-1.1c0,0.3,0.1,0.5,0.1,0.8C101.5,240.1,101.3,240.2,101.2,240.3z"/>
</svg>